# xmcd CD database file
#
# Track frame offsets:
#	150
#	21425
#	45375
#	71147
#	89667
#	115040
#	139152
#	160047
#	182260
#	206317
#
# Disc length: 3024 seconds
#
# Revision: 5
# Processed by: cddbd v1.5.2PL0 Copyright (c) Steve Scherf et al.
# Submitted via: CDex 1.70beta3
#
DISCID=800bce0a
DTITLE=鈴木雅之 - She･See･Sea
DYEAR=1994
DGENRE=R&B
TTITLE0=夢のまた夢
TTITLE1=逃亡者
TTITLE2=そばにいて
TTITLE3=違う、そうじゃない
TTITLE4=どうしようもない
TTITLE5=第２ターミナル
TTITLE6=底なしの海
TTITLE7=何も言わずに
TTITLE8=ここに地終わり 海始まる
TTITLE9=絶対離さない
EXTD=YEAR: 1994
EXTT0=
EXTT1=
EXTT2=
EXTT3=
EXTT4=
EXTT5=
EXTT6=
EXTT7=
EXTT8=
EXTT9=
PLAYORDER=
